<?xml version="1.0" encoding="UTF-8" standalone="no"?>
<svg
   xmlns:dc="http://purl.org/dc/elements/1.1/"
   xmlns:cc="http://creativecommons.org/ns#"
   xmlns:rdf="http://www.w3.org/1999/02/22-rdf-syntax-ns#"
   xmlns:svg="http://www.w3.org/2000/svg"
   xmlns="http://www.w3.org/2000/svg"
   xmlns:sodipodi="http://sodipodi.sourceforge.net/DTD/sodipodi-0.dtd"
   xmlns:inkscape="http://www.inkscape.org/namespaces/inkscape"
   height="17"
   viewBox="0 0 17 17"
   width="17"
   version="1.1"
   id="svg11"
   sodipodi:docname="shape-3.svg"
   inkscape:version="0.92.4 (5da689c313, 2019-01-14)">
  <metadata
     id="metadata17">
    <rdf:RDF>
      <cc:Work
         rdf:about="">
        <dc:format>image/svg+xml</dc:format>
        <dc:type
           rdf:resource="http://purl.org/dc/dcmitype/StillImage" />
      </cc:Work>
    </rdf:RDF>
  </metadata>
  <defs
     id="defs15" />
  <sodipodi:namedview
     pagecolor="#ffffff"
     bordercolor="#666666"
     borderopacity="1"
     objecttolerance="10"
     gridtolerance="10"
     guidetolerance="10"
     inkscape:pageopacity="0"
     inkscape:pageshadow="2"
     inkscape:window-width="1366"
     inkscape:window-height="705"
     id="namedview13"
     showgrid="false"
     inkscape:zoom="13.882353"
     inkscape:cx="8.5"
     inkscape:cy="8.5"
     inkscape:window-x="-8"
     inkscape:window-y="-8"
     inkscape:window-maximized="1"
     inkscape:current-layer="svg11" />
  <filter
     id="a"
     filterUnits="userSpaceOnUse"
     height="17"
     width="17"
     x="0"
     y="0">
    <feFlood
       flood-color="#f14836"
       result="flood"
       id="feFlood2" />
    <feComposite
       in2="SourceGraphic"
       operator="in"
       result="composite"
       id="feComposite4" />
    <feBlend
       in2="SourceGraphic"
       result="blend"
       id="feBlend6" />
  </filter>
  <path
     d="m1.92.975a1.284 1.284 0 0 1 -.961.96 1.284 1.284 0 0 1 -.959-.96 1.258 1.258 0 0 1 .959-.961 1.258 1.258 0 0 1 .961.961zm-.944 16.025a1.258 1.258 0 0 1 -.961-.96 1.258 1.258 0 0 1 .961-.961 1.259 1.259 0 0 1 .962.961 1.259 1.259 0 0 1 -.962.96zm2.779-14.207a1.258 1.258 0 0 1 -.961.96 1.258 1.258 0 0 1 -.961-.96 1.284 1.284 0 0 1 .961-.962 1.284 1.284 0 0 1 .961.962zm-.944 12.373a1.258 1.258 0 0 1 -.961-.96 1.26 1.26 0 0 1 .961-.962 1.26 1.26 0 0 1 .961.962 1.258 1.258 0 0 1 -.961.96zm1.835-1.852a1.26 1.26 0 0 1 -.962-.961 1.26 1.26 0 0 1 .962-.962 1.26 1.26 0 0 1 .961.962 1.26 1.26 0 0 1 -.961.961zm.944-8.669a1.261 1.261 0 0 1 -.944.961 1.261 1.261 0 0 1 -.946-.961 1.264 1.264 0 0 1 .944-.961 1.264 1.264 0 0 1 .946.961zm1.853 1.818a1.281 1.281 0 0 1 -.961.979 1.281 1.281 0 0 1 -.962-.979 1.285 1.285 0 0 1 .961-.963 1.285 1.285 0 0 1 .962.963zm-.962 5.015a1.258 1.258 0 0 1 -.961-.961 1.258 1.258 0 0 1 .961-.96 1.258 1.258 0 0 1 .961.96 1.258 1.258 0 0 1 -.961.961zm2.028-1.747a1.633 1.633 0 0 1 -1.259-1.241 1.635 1.635 0 0 1 1.259-1.241 1.635 1.635 0 0 1 1.258 1.241 1.633 1.633 0 0 1 -1.258 1.241zm2.027-2.289a1.281 1.281 0 0 1 -.979-.962 1.28 1.28 0 0 1 .979-.961 1.284 1.284 0 0 1 .961.961 1.285 1.285 0 0 1 -.961.962zm.944 3.075a1.257 1.257 0 0 1 -.962.961 1.257 1.257 0 0 1 -.961-.961 1.258 1.258 0 0 1 .961-.96 1.258 1.258 0 0 1 .962.96zm.874-4.945a1.238 1.238 0 0 1 -.961-.945 1.239 1.239 0 0 1 .961-.943 1.239 1.239 0 0 1 .961.943 1.238 1.238 0 0 1 -.961.945zm.961 6.781a1.239 1.239 0 0 1 -.944.961 1.24 1.24 0 0 1 -.944-.961 1.24 1.24 0 0 1 .944-.962 1.239 1.239 0 0 1 .944.962zm.891-8.6a1.258 1.258 0 0 1 -.961-.96 1.258 1.258 0 0 1 .961-.962 1.284 1.284 0 0 1 .962.962 1.284 1.284 0 0 1 -.962.961zm.962 10.434a1.258 1.258 0 0 1 -.962.961 1.258 1.258 0 0 1 -.961-.961 1.283 1.283 0 0 1 .961-.961 1.283 1.283 0 0 1 .962.962zm.856-12.268a1.285 1.285 0 0 1 -.961-.962 1.284 1.284 0 0 1 .961-.957 1.259 1.259 0 0 1 .961.961 1.26 1.26 0 0 1 -.961.958zm.976 14.104a1.258 1.258 0 0 1 -.961.961 1.258 1.258 0 0 1 -.961-.961 1.259 1.259 0 0 1 .961-.961 1.259 1.259 0 0 1 .961.961z"
     fill="#fff"
     fill-rule="evenodd"
     filter="url(#a)"
     id="path9"
     style="fill:#22aae2;fill-opacity:1" />
  <path
     style="fill:#22aae2;fill-opacity:1;stroke-width:0.07214733;stroke-linejoin:round;stroke-miterlimit:4;stroke-dasharray:none"
     d="M 4.3148305,13.134621 C 4.0371907,12.963124 3.8761788,12.779523 3.7787937,12.523381 3.713901,12.3527 3.7275912,12.271234 3.8610785,12.033725 c 0.1742781,-0.310086 0.5232694,-0.565928 0.7719757,-0.565928 0.3632509,0 0.8020163,0.387035 0.9053049,0.79857 0.055536,0.221273 -0.1898107,0.606831 -0.5335649,0.838487 -0.2943821,0.198384 -0.4089814,0.203328 -0.6899637,0.02977 z"
     id="path824"
     inkscape:connector-curvature="0" />
  <path
     style="fill:#22aae2;fill-opacity:1;stroke-width:0.07214733;stroke-linejoin:round;stroke-miterlimit:4;stroke-dasharray:none"
     d="M 0.59944304,1.7234977 C 0.2556889,1.4918418 0.01034209,1.106284 0.06587816,0.88501064 0.16916681,0.47347585 0.60793217,0.08644068 0.97118306,0.08644068 c 0.24870634,0 0.59769764,0.25584228 0.77197564,0.56592826 0.1333801,0.23731778 0.1471614,0.31913453 0.0825,0.48978786 C 1.7296392,1.3955719 1.4954047,1.6526527 1.2389586,1.7860815 0.97494035,1.9234501 0.88276736,1.9144299 0.59944304,1.7234977 Z"
     id="path826"
     inkscape:connector-curvature="0" />
  <path
     style="fill:#22aae2;fill-opacity:1;stroke-width:0.07214733;stroke-linejoin:round;stroke-miterlimit:4;stroke-dasharray:none"
     d="M 2.3985763,3.523829 C 2.0711351,3.3040212 1.8633787,2.9141653 1.9307135,2.6458819 1.9966788,2.3830552 2.3959072,1.9826623 2.6574584,1.9170171 3.0392343,1.8211975 3.703038,2.3735596 3.7022731,2.786425 3.7016104,3.1453659 3.1561023,3.6872238 2.7947628,3.6878663 2.7114798,3.6880176 2.5331959,3.6141976 2.3985763,3.523829 Z"
     id="path828"
     inkscape:connector-curvature="0" />
  <path
     style="fill:#22aae2;fill-opacity:1;stroke-width:0.07214733;stroke-linejoin:round;stroke-miterlimit:4;stroke-dasharray:none"
     d="M 4.2961636,5.4173383 C 4.0083033,5.2418277 3.7752061,4.8750696 3.7748455,4.5970896 3.7744766,4.3126682 4.3211845,3.7601695 4.602994,3.7601695 c 0.4892145,0 1.0437414,0.6666754 0.8906622,1.0707912 C 5.4029272,5.0704776 5.1640775,5.3290121 4.9126874,5.4598103 4.6562918,5.5932129 4.5754916,5.5876466 4.2961636,5.4173383 Z"
     id="path830"
     inkscape:connector-curvature="0" />
  <path
     style="fill:#22aae2;fill-opacity:1;stroke-width:0.07214733;stroke-linejoin:round;stroke-miterlimit:4;stroke-dasharray:none"
     d="M 6.2321314,7.3085328 C 5.9547602,7.1741979 5.6643453,6.8419432 5.5999154,6.5852339 5.5079606,6.2188566 6.070559,5.5610169 6.4758475,5.5610169 c 0.234417,0 0.6288738,0.2926373 0.7856087,0.5828228 C 7.4302963,6.4564372 7.3838808,6.6898712 7.0852573,7.0299846 6.7911333,7.3649734 6.5268419,7.4512653 6.2321314,7.3085328 Z"
     id="path832"
     inkscape:connector-curvature="0" />
  <path
     style="fill:#22aae2;fill-opacity:1;stroke-width:0.07214733;stroke-linejoin:round;stroke-miterlimit:4;stroke-dasharray:none"
     d="M 8.1326271,9.5536691 C 7.7079887,9.3328188 7.3042373,8.7994531 7.3042373,8.4593454 7.3042373,8.0849817 7.920722,7.4439441 8.394418,7.3257457 8.7673231,7.2326972 9.4189176,7.7090762 9.6388292,8.2355314 9.7424688,8.4836385 9.7387733,8.5154515 9.566048,8.8620659 9.4416896,9.1116209 9.2790001,9.2968257 9.0521495,9.4470853 8.6811681,9.6928131 8.4513783,9.7194486 8.1326271,9.5536691 Z"
     id="path834"
     inkscape:connector-curvature="0" />
  <path
     style="fill:#22aae2;fill-opacity:1;stroke-width:0.07214733;stroke-linejoin:round;stroke-miterlimit:4;stroke-dasharray:none"
     d="M 10.215734,7.2634912 C 9.9086852,7.091257 9.609322,6.701146 9.609322,6.4732539 c 0,-0.2336188 0.2982847,-0.6085098 0.620616,-0.7800039 0.260142,-0.1384071 0.323253,-0.1466346 0.51513,-0.067156 0.252129,0.1044352 0.46589,0.315065 0.617898,0.6088488 0.134528,0.2599986 0.05057,0.53187 -0.257153,0.8327283 -0.341073,0.3334617 -0.559163,0.3814424 -0.890079,0.1958201 z"
     id="path836"
     inkscape:connector-curvature="0" />
  <path
     style="fill:#22aae2;fill-opacity:1;stroke-width:0.07214733;stroke-linejoin:round;stroke-miterlimit:4;stroke-dasharray:none"
     d="M 12.049425,5.395834 C 11.835856,5.2880885 11.681016,5.1394105 11.568892,4.9344245 l -0.16543,-0.3024398 0.150327,-0.2946656 c 0.166676,-0.3267124 0.513106,-0.576468 0.800177,-0.5768803 0.420877,-6.046e-4 1.005745,0.6531923 0.895384,1.000909 -0.07603,0.2395441 -0.329023,0.5099085 -0.612454,0.6545044 -0.271911,0.1387187 -0.272895,0.1386852 -0.587471,-0.020018 z"
     id="path838"
     inkscape:connector-curvature="0" />
  <path
     style="fill:#22aae2;fill-opacity:1;stroke-width:0.07214733;stroke-linejoin:round;stroke-miterlimit:4;stroke-dasharray:none"
     d="m 13.787252,3.5260593 c -0.639867,-0.4367661 -0.596478,-1.1563245 0.09208,-1.5271403 0.30405,-0.1637418 0.536243,-0.1160136 0.872681,0.179383 0.476681,0.4185313 0.458762,0.8248094 -0.05633,1.2770628 -0.316665,0.2780347 -0.575209,0.2981546 -0.90844,0.070695 z"
     id="path840"
     inkscape:connector-curvature="0" />
  <path
     style="fill:#22aae2;fill-opacity:1;stroke-width:0.07214733;stroke-linejoin:round;stroke-miterlimit:4;stroke-dasharray:none"
     d="M 15.745143,1.7661447 C 15.496079,1.6434112 15.203449,1.3069688 15.129995,1.0588983 15.062757,0.83182318 15.372588,0.36093211 15.712668,0.17333363 l 0.300263,-0.16563435 0.285773,0.14579075 c 0.761565,0.38852129 0.798124,1.08469787 0.08254,1.57172187 -0.282078,0.1919805 -0.324091,0.194684 -0.636098,0.040933 z"
     id="path842"
     inkscape:connector-curvature="0" />
  <path
     style="fill:#22aae2;fill-opacity:1;stroke-width:0.07214733;stroke-linejoin:round;stroke-miterlimit:4;stroke-dasharray:none"
     d="M 10.285018,11.361031 C 9.8776997,11.189766 9.5393675,10.649141 9.6403638,10.33093 9.7058043,10.124745 10.170218,9.6864261 10.378671,9.6341079 c 0.39873,-0.100075 1.031498,0.4567451 1.031498,0.9076931 0,0.133835 -0.08874,0.303466 -0.255061,0.487564 -0.320703,0.35498 -0.579774,0.453734 -0.87009,0.331666 z"
     id="path844"
     inkscape:connector-curvature="0" />
  <path
     style="fill:#22aae2;fill-opacity:1;stroke-width:0.07214733;stroke-linejoin:round;stroke-miterlimit:4;stroke-dasharray:none"
     d="m 11.944633,13.066268 c -0.328364,-0.23799 -0.501141,-0.570018 -0.434594,-0.835165 0.06269,-0.249763 0.394972,-0.622243 0.651211,-0.729983 0.188171,-0.07912 0.254302,-0.07311 0.483734,0.04393 0.274362,0.139969 0.509713,0.414506 0.597365,0.696828 0.05992,0.192999 -0.170875,0.638877 -0.429576,0.829906 -0.311968,0.230363 -0.544725,0.228883 -0.86814,-0.0055 z"
     id="path846"
     inkscape:connector-curvature="0" />
  <path
     style="fill:#22aae2;fill-opacity:1;stroke-width:0.07214733;stroke-linejoin:round;stroke-miterlimit:4;stroke-dasharray:none"
     d="m 13.911576,14.987623 c -0.345823,-0.177418 -0.661489,-0.641392 -0.600823,-0.883105 0.103376,-0.411886 0.698455,-0.886191 1.012843,-0.807284 0.249422,0.0626 0.534653,0.318604 0.686411,0.616074 0.136797,0.268144 0.136725,0.273839 -0.0071,0.564502 -0.143262,0.289558 -0.33979,0.46409 -0.659413,0.58561 -0.116048,0.04412 -0.240891,0.02221 -0.431935,-0.0758 z"
     id="path848"
     inkscape:connector-curvature="0" />
  <path
     style="fill:#22aae2;fill-opacity:1;stroke-width:0.07214733;stroke-linejoin:round;stroke-miterlimit:4;stroke-dasharray:none"
     d="m 15.653911,16.778166 c -0.345365,-0.232741 -0.578468,-0.668206 -0.487145,-0.910047 0.09609,-0.254466 0.412652,-0.580786 0.671784,-0.692495 0.185334,-0.07989 0.250325,-0.0741 0.47942,0.04278 0.293799,0.149885 0.548071,0.435803 0.611179,0.687246 0.0601,0.239438 -0.228303,0.70396 -0.548932,0.884163 -0.342132,0.19229 -0.425674,0.19095 -0.726306,-0.01165 z"
     id="path850"
     inkscape:connector-curvature="0" />
  <path
     style="fill:#22aae2;fill-opacity:1;stroke-width:0.07214733;stroke-linejoin:round;stroke-miterlimit:4;stroke-dasharray:none"
     d="M 6.2511199,11.361031 C 5.994026,11.252931 5.6653608,10.879887 5.6008857,10.622998 5.5020095,10.229044 6.0269786,9.6381356 6.4758475,9.6381356 c 0.4241796,0 0.9004237,0.4894824 0.9004237,0.9254524 0,0.224701 -0.4304402,0.720322 -0.7103277,0.817891 -0.1402997,0.04891 -0.2644236,0.04279 -0.4148236,-0.02045 z"
     id="path852"
     inkscape:connector-curvature="0" />
  <path
     style="fill:#22aae2;fill-opacity:1;stroke-width:0.07214733;stroke-linejoin:round;stroke-miterlimit:4;stroke-dasharray:none"
     d="M 2.5860169,15.057463 C 2.1687326,14.826672 1.862083,14.372718 1.9328909,14.090597 c 0.059668,-0.237735 0.4302767,-0.642693 0.6845809,-0.748029 0.1854356,-0.07681 0.2495302,-0.06692 0.5081278,0.07842 0.3267469,0.183642 0.5772001,0.527995 0.5764681,0.792597 -6.771e-4,0.245464 -0.2359607,0.568853 -0.553897,0.76132 -0.3091461,0.187145 -0.3596428,0.194561 -0.5621538,0.08256 z"
     id="path854"
     inkscape:connector-curvature="0" />
  <path
     style="fill:#22aae2;fill-opacity:1;stroke-width:0.07214733;stroke-linejoin:round;stroke-miterlimit:4;stroke-dasharray:none"
     d="m 0.64110169,16.808349 c -0.46201722,-0.285385 -0.64916584,-0.6495 -0.5072772,-0.986953 0.12812015,-0.304709 0.57907087,-0.679871 0.81721472,-0.679871 0.44789379,0 1.02619019,0.654228 0.90899299,1.028345 -0.1112795,0.355227 -0.5743167,0.771353 -0.858761,0.771759 -0.0792373,1.15e-4 -0.24131357,-0.05986 -0.36016951,-0.13328 z"
     id="path856"
     inkscape:connector-curvature="0" />
</svg>
