<?xml version="1.0" encoding="UTF-8" standalone="no"?>
<svg
   xmlns:dc="http://purl.org/dc/elements/1.1/"
   xmlns:cc="http://creativecommons.org/ns#"
   xmlns:rdf="http://www.w3.org/1999/02/22-rdf-syntax-ns#"
   xmlns:svg="http://www.w3.org/2000/svg"
   xmlns="http://www.w3.org/2000/svg"
   xmlns:sodipodi="http://sodipodi.sourceforge.net/DTD/sodipodi-0.dtd"
   xmlns:inkscape="http://www.inkscape.org/namespaces/inkscape"
   height="17"
   viewBox="0 0 17 17"
   width="17"
   version="1.1"
   id="svg11"
   sodipodi:docname="shape-5.svg"
   inkscape:version="0.92.4 (5da689c313, 2019-01-14)">
  <metadata
     id="metadata17">
    <rdf:RDF>
      <cc:Work
         rdf:about="">
        <dc:format>image/svg+xml</dc:format>
        <dc:type
           rdf:resource="http://purl.org/dc/dcmitype/StillImage" />
      </cc:Work>
    </rdf:RDF>
  </metadata>
  <defs
     id="defs15" />
  <sodipodi:namedview
     pagecolor="#ffffff"
     bordercolor="#666666"
     borderopacity="1"
     objecttolerance="10"
     gridtolerance="10"
     guidetolerance="10"
     inkscape:pageopacity="0"
     inkscape:pageshadow="2"
     inkscape:window-width="1366"
     inkscape:window-height="705"
     id="namedview13"
     showgrid="false"
     inkscape:zoom="27.764706"
     inkscape:cx="11.634761"
     inkscape:cy="8.143783"
     inkscape:window-x="-8"
     inkscape:window-y="-8"
     inkscape:window-maximized="1"
     inkscape:current-layer="svg11" />
  <filter
     id="a"
     filterUnits="userSpaceOnUse"
     height="17"
     width="17"
     x="0"
     y="0">
    <feFlood
       flood-color="#f14836"
       result="flood"
       id="feFlood2" />
    <feComposite
       in2="SourceGraphic"
       operator="in"
       result="composite"
       id="feComposite4" />
    <feBlend
       in2="SourceGraphic"
       result="blend"
       id="feBlend6" />
  </filter>
  <path
     d="m17 8.5a8.5 8.5 0 1 1 -8.5-8.5 8.5 8.5 0 0 1 8.5 8.5zm-8.5-5.526a5.525 5.525 0 1 0 5.525 5.526 5.525 5.525 0 0 0 -5.525-5.526z"
     fill="#fff"
     fill-rule="evenodd"
     filter="url(#a)"
     id="path9"
     style="fill:#22aae2;fill-opacity:1" />
  <path
     style="fill:#22aae2;fill-opacity:1;stroke-width:0.03607367;stroke-linejoin:round;stroke-miterlimit:4;stroke-dasharray:none"
     d="M 7.5072185,16.927242 C 7.0709146,16.877742 6.3701893,16.720552 5.8881749,16.564051 2.8246855,15.569392 0.59401873,12.931522 0.10724526,9.7278272 -0.06212431,8.6131228 0.02426237,7.2920574 0.33808553,6.1977098 1.6876393,1.4916172 6.6614717,-1.0993851 11.293189,0.49090364 c 0.512559,0.17598612 1.376942,0.60331476 1.832674,0.90602726 2.072664,1.376735 3.356296,3.3738119 3.768944,5.8637353 0.09187,0.554375 0.09225,1.8810672 6.92e-4,2.465877 -0.288384,1.8420548 -1.108015,3.4668458 -2.39942,4.7564738 -0.721928,0.720934 -1.400841,1.206713 -2.28865,1.637585 -0.886522,0.430247 -1.775451,0.691594 -2.754352,0.809783 -0.3567759,0.04308 -1.5555396,0.04114 -1.94586,-0.0031 z M 9.0251186,14.012178 C 11.608318,13.751199 13.621502,11.813101 13.992261,9.2302941 14.054896,8.7939678 14.016925,7.785132 13.921721,7.3561352 13.489513,5.4085641 12.116878,3.8683489 10.261341,3.2488735 9.6249773,3.0364221 9.2532863,2.979692 8.4976846,2.979692 c -0.5721948,0 -0.746287,0.013219 -1.0625,0.080677 C 5.1873185,3.5399096 3.5590665,5.1585639 3.0688299,7.400986 2.9613267,7.8927233 2.9529388,9.0320618 3.0531674,9.5284273 3.20238,10.267378 3.4977494,10.983175 3.9092337,11.603015 c 0.3028773,0.45624 1.0147242,1.16799 1.4712848,1.471084 1.1209206,0.744139 2.3733844,1.066509 3.6446001,0.938079 z"
     id="path832"
     inkscape:connector-curvature="0" />
</svg>
