<?xml version="1.0" encoding="UTF-8" standalone="no"?>
<svg
   xmlns:dc="http://purl.org/dc/elements/1.1/"
   xmlns:cc="http://creativecommons.org/ns#"
   xmlns:rdf="http://www.w3.org/1999/02/22-rdf-syntax-ns#"
   xmlns:svg="http://www.w3.org/2000/svg"
   xmlns="http://www.w3.org/2000/svg"
   xmlns:sodipodi="http://sodipodi.sourceforge.net/DTD/sodipodi-0.dtd"
   xmlns:inkscape="http://www.inkscape.org/namespaces/inkscape"
   height="12"
   viewBox="0 0 12 12"
   width="12"
   version="1.1"
   id="svg11"
   sodipodi:docname="shape-2.svg"
   inkscape:version="0.92.4 (5da689c313, 2019-01-14)">
  <metadata
     id="metadata17">
    <rdf:RDF>
      <cc:Work
         rdf:about="">
        <dc:format>image/svg+xml</dc:format>
        <dc:type
           rdf:resource="http://purl.org/dc/dcmitype/StillImage" />
      </cc:Work>
    </rdf:RDF>
  </metadata>
  <defs
     id="defs15" />
  <sodipodi:namedview
     pagecolor="#ffffff"
     bordercolor="#666666"
     borderopacity="1"
     objecttolerance="10"
     gridtolerance="10"
     guidetolerance="10"
     inkscape:pageopacity="0"
     inkscape:pageshadow="2"
     inkscape:window-width="1366"
     inkscape:window-height="705"
     id="namedview13"
     showgrid="false"
     inkscape:zoom="19.666667"
     inkscape:cx="6"
     inkscape:cy="6"
     inkscape:window-x="-8"
     inkscape:window-y="-8"
     inkscape:window-maximized="1"
     inkscape:current-layer="svg11" />
  <filter
     id="a"
     filterUnits="userSpaceOnUse"
     height="12"
     width="12"
     x="0"
     y="0">
    <feFlood
       flood-color="#f14836"
       result="flood"
       id="feFlood2" />
    <feComposite
       in2="SourceGraphic"
       operator="in"
       result="composite"
       id="feComposite4" />
    <feBlend
       in2="SourceGraphic"
       result="blend"
       id="feBlend6" />
  </filter>
  <path
     d="m6 12a6 6 0 1 1 6-6 6.007 6.007 0 0 1 -6 6zm0-11.451a5.45 5.45 0 1 0 5.451 5.451 5.456 5.456 0 0 0 -5.451-5.451zm.733 8.74h-1.467v-2.557h-2.557v-1.467h2.557v-2.557h1.467v2.557h2.556v1.467h-2.556z"
     fill="#fff"
     fill-rule="evenodd"
     filter="url(#a)"
     id="path9"
     style="fill:#22aae2;fill-opacity:1" />
  <path
     style="fill:#22aae2;fill-opacity:1;stroke-width:0.05092753;stroke-linejoin:round;stroke-miterlimit:4;stroke-dasharray:none"
     d="M 5.3084746,7.9932203 V 6.7220339 H 4.0118644 2.7152542 V 6.0101695 5.2983051 H 4.0118644 5.3084746 V 4.0271186 2.7559322 H 6.020339 6.7322034 V 4.0271186 5.2983051 H 8.0033898 9.2745763 V 6.0101695 6.7220339 H 8.0033898 6.7322034 V 7.9932203 9.2644068 H 6.020339 5.3084746 Z"
     id="path824"
     inkscape:connector-curvature="0" />
  <path
     style="fill:#22aae2;fill-opacity:1;stroke-width:0.05092753;stroke-linejoin:round;stroke-miterlimit:4;stroke-dasharray:none"
     d="M 4.9485625,11.880417 C 1.9886275,11.344414 -0.13908699,8.6488831 0.0375409,5.6588075 0.25798946,1.9269064 3.8532768,-0.71143175 7.4608561,0.2113389 c 0.9802678,0.25073938 1.8550942,0.73196585 2.5922479,1.4259492 0.577409,0.5435935 0.989613,1.0954625 1.307761,1.7508612 1.123661,2.3147978 0.674195,4.9922002 -1.144872,6.8198327 -0.8925345,0.896737 -1.9648606,1.457537 -3.1982999,1.672631 -0.5484148,0.09563 -1.5404472,0.09554 -2.0691306,-2.04e-4 z M 7.4342247,11.277836 C 9.541652,10.691556 11.10599,8.9233414 11.413372,6.7800976 11.555449,5.7894503 11.379723,4.5959313 10.959877,3.7000033 9.3703322,0.30800444 4.9457241,-0.53541689 2.2442695,2.0386294 1.3505962,2.8901545 0.81798381,3.8856387 0.61107676,5.0911637 0.13205792,7.8821232 1.918878,10.623011 4.6524943,11.290485 c 0.6376015,0.155685 0.620055,0.15409 1.4949633,0.135906 0.6853124,-0.01424 0.8881546,-0.03766 1.2867671,-0.148555 z"
     id="path826"
     inkscape:connector-curvature="0" />
</svg>
