<?xml version="1.0" encoding="UTF-8" standalone="no"?>
<svg
   xmlns:dc="http://purl.org/dc/elements/1.1/"
   xmlns:cc="http://creativecommons.org/ns#"
   xmlns:rdf="http://www.w3.org/1999/02/22-rdf-syntax-ns#"
   xmlns:svg="http://www.w3.org/2000/svg"
   xmlns="http://www.w3.org/2000/svg"
   xmlns:sodipodi="http://sodipodi.sourceforge.net/DTD/sodipodi-0.dtd"
   xmlns:inkscape="http://www.inkscape.org/namespaces/inkscape"
   height="29"
   viewBox="0 0 9 29"
   width="9"
   version="1.1"
   id="svg11"
   sodipodi:docname="shape-4.svg"
   inkscape:version="0.92.4 (5da689c313, 2019-01-14)">
  <metadata
     id="metadata17">
    <rdf:RDF>
      <cc:Work
         rdf:about="">
        <dc:format>image/svg+xml</dc:format>
        <dc:type
           rdf:resource="http://purl.org/dc/dcmitype/StillImage" />
      </cc:Work>
    </rdf:RDF>
  </metadata>
  <defs
     id="defs15" />
  <sodipodi:namedview
     pagecolor="#ffffff"
     bordercolor="#666666"
     borderopacity="1"
     objecttolerance="10"
     gridtolerance="10"
     guidetolerance="10"
     inkscape:pageopacity="0"
     inkscape:pageshadow="2"
     inkscape:window-width="1366"
     inkscape:window-height="705"
     id="namedview13"
     showgrid="false"
     inkscape:zoom="8.137931"
     inkscape:cx="4.5"
     inkscape:cy="14.5"
     inkscape:window-x="-8"
     inkscape:window-y="-8"
     inkscape:window-maximized="1"
     inkscape:current-layer="svg11" />
  <filter
     id="a"
     filterUnits="userSpaceOnUse"
     height="29"
     width="9"
     x="0"
     y="0">
    <feFlood
       flood-color="#f14836"
       result="flood"
       id="feFlood2" />
    <feComposite
       in2="SourceGraphic"
       operator="in"
       result="composite"
       id="feComposite4" />
    <feBlend
       in2="SourceGraphic"
       result="blend"
       id="feBlend6" />
  </filter>
  <path
     d="m8.991 19.459-.016-11.302a.61.61 0 0 0 -1.22-.005l.016 11.31.01 4.9c0 2.269-1.1 3.355-3.455 3.42-2.073-.09-3.1-1.218-3.1-3.445v-21a2.312 2.312 0 0 1 2.421-2.128 2.047 2.047 0 0 1 1.5.563 2.156 2.156 0 0 1 .664 1.588v15.722c0 1.627-.719 1.627-1.233 1.627-.443 0-1.27 0-1.27-1.419l.011-9.879s-.006-.6-.006-.592a.605.605 0 0 0 -1.21 0s-.017 10.471-.017 10.471a2.335 2.335 0 0 0 2.49 2.625c1.952 0 2.453-1.617 2.453-2.833v-15.723a3.346 3.346 0 0 0 -1.041-2.459 3.263 3.263 0 0 0 -2.369-.9 3.484 3.484 0 0 0 -3.614 3.34v21c0 2.839 1.572 4.534 4.312 4.651 3.036-.08 4.683-1.723 4.683-4.624z"
     fill="#fff"
     fill-rule="evenodd"
     filter="url(#a)"
     id="path9"
     style="fill:#22aae2;fill-opacity:1" />
  <path
     style="fill:#22aae2;fill-opacity:1;stroke-width:0.12307487;stroke-linejoin:round;stroke-miterlimit:4;stroke-dasharray:none"
     d="M 2.8656579,28.672876 C 1.5458403,28.216839 0.70055307,27.330292 0.27422822,25.954953 0.08229584,25.335773 0.06398305,24.29735 0.06398305,14.033051 V 2.7894068 L 0.354385,2.1470998 C 0.67427636,1.4395686 1.5090317,0.59291333 2.1513205,0.32454796 3.8686263,-0.39298819 5.8557418,0.33176079 6.6627422,1.9699723 L 6.945339,2.5436441 v 8.7245759 8.724577 l -0.29137,0.591794 C 5.721699,22.478103 2.76933,22.204445 2.2098714,20.172664 2.0121441,19.45458 2.1452387,8.6733545 2.3549501,8.4206678 c 0.1856266,-0.2236663 0.5322348,-0.204578 0.7353003,0.040494 0.1375009,0.1659446 0.1686479,1.2382607 0.1686479,5.8061442 0,6.13108 0.00188,6.147979 0.7111217,6.395221 0.5091729,0.1775 0.8968676,0.161636 1.3133556,-0.05374 0.616417,-0.318762 0.6371502,-0.657588 0.5946718,-9.718284 L 5.8394068,2.6483827 5.4925528,2.1243483 C 4.5783578,0.7431632 2.446271,0.83756726 1.5385593,2.2994224 L 1.1699153,2.8931178 V 14.023466 c 0,12.57931 -0.043887,11.960085 0.9153449,12.915114 0.6406953,0.637889 1.2296826,0.857183 2.3022441,0.857183 1.5194522,0 2.6504799,-0.615352 3.162017,-1.720339 0.2500319,-0.540102 0.2574165,-0.760227 0.3174279,-9.461865 L 7.9283902,7.704661 8.3278338,7.666149 C 8.6630501,7.633829 8.7470229,7.679572 8.8500795,7.9506315 8.9275515,8.1543974 8.9720941,11.321119 8.970748,16.529398 8.968368,25.746817 8.951639,25.973249 8.1881512,27.123145 7.9517823,27.479142 7.5090293,27.920967 7.1717987,28.137368 6.0144449,28.88004 4.1398794,29.113159 2.8656579,28.672876 Z"
     id="path824"
     inkscape:connector-curvature="0" />
</svg>
